<?xml version="1.0" standalone="no"?>
<!DOCTYPE svg PUBLIC "-//W3C//DTD SVG 20010904//EN"
 "http://www.w3.org/TR/2001/REC-SVG-20010904/DTD/svg10.dtd">
<svg version="1.0" xmlns="http://www.w3.org/2000/svg"
 width="800.000000pt" height="800.000000pt" viewBox="0 0 800.000000 800.000000"
 preserveAspectRatio="xMidYMid meet">

<g transform="translate(0.000000,800.000000) scale(0.100000,-0.100000)"
fill="#000000" stroke="none">
<path d="M3770 7440 c-113 -4 -245 -13 -294 -19 -251 -33 -818 -222 -1092
-365 -191 -100 -507 -313 -656 -443 -181 -157 -510 -519 -612 -673 -129 -194
-268 -472 -364 -731 -63 -168 -94 -272 -125 -430 -120 -593 -117 -1121 8
-1619 28 -112 120 -385 171 -508 59 -145 200 -410 288 -542 95 -142 291 -392
390 -497 159 -169 532 -452 762 -579 316 -174 526 -262 828 -348 328 -94 755
-144 1076 -125 419 23 651 62 925 153 437 147 736 307 1072 574 127 101 400
371 534 527 258 301 480 727 619 1190 125 412 161 603 161 846 -1 384 -42 702
-133 1024 -56 199 -157 476 -219 598 -16 32 -41 86 -55 120 -15 34 -41 85 -59
112 -18 28 -60 95 -95 149 -144 231 -324 437 -605 695 -191 175 -245 219 -380
306 -334 217 -648 364 -979 459 -399 115 -681 145 -1166 126z m490 -140 c447
-41 846 -160 1285 -383 283 -144 561 -351 810 -602 242 -243 336 -366 477
-623 235 -427 376 -832 437 -1257 27 -182 44 -481 36 -620 -8 -128 -56 -452
-86 -575 -94 -385 -331 -913 -534 -1188 -141 -193 -438 -507 -606 -642 -229
-184 -559 -376 -831 -484 -206 -81 -496 -159 -728 -195 -295 -46 -721 -44
-1050 5 -945 141 -1925 815 -2374 1633 -72 132 -185 387 -218 491 -61 199
-122 470 -154 680 -25 168 -30 629 -10 820 31 280 102 609 179 820 101 278
336 690 534 935 191 237 507 504 806 683 469 280 1010 464 1492 505 95 8 429
6 535 -3z"/>
<path d="M3665 7166 c-90 -10 -100 -13 -100 -31 0 -11 11 -145 25 -297 l25
-278 36 0 c20 0 77 3 127 6 l92 7 0 31 c0 70 -6 76 -75 76 l-63 0 -7 56 c-4
31 -4 58 -1 62 4 3 33 8 66 10 l60 4 0 47 c0 25 -4 51 -8 58 -4 7 -36 13 -72
15 l-65 3 0 50 0 50 63 3 62 3 0 69 0 70 -32 -1 c-18 -1 -78 -7 -133 -13z"/>
<path d="M4023 7169 c-10 -10 -13 -84 -13 -301 l0 -288 68 -2 c164 -6 204 6
243 69 30 48 31 127 1 176 l-20 35 29 28 c61 58 65 161 9 219 -18 19 -47 41
-64 49 -44 20 -237 31 -253 15z m198 -125 c7 -9 13 -31 13 -49 0 -43 -19 -65
-55 -65 -29 0 -29 1 -29 59 0 38 4 61 13 64 24 10 45 7 58 -9z m3 -266 c16
-22 13 -61 -7 -85 -5 -7 -25 -13 -43 -13 l-34 0 0 53 c0 30 3 57 7 60 15 16
62 6 77 -15z"/>
<path d="M3525 7144 c-5 -1 -31 -5 -57 -9 l-48 -6 0 -150 c0 -86 -4 -148 -9
-145 -5 3 -33 62 -61 131 -32 77 -58 125 -67 125 -21 0 -107 -22 -116 -30 -4
-3 46 -116 111 -251 66 -134 123 -255 127 -268 7 -22 10 -23 63 -17 31 4 60
10 64 14 7 7 14 600 7 606 -2 2 -8 2 -14 0z"/>
<path d="M4501 7108 c-4 -13 -49 -139 -101 -281 -56 -157 -89 -262 -83 -268 5
-5 30 -12 55 -15 44 -6 47 -5 63 25 15 29 19 32 48 26 44 -10 57 -23 57 -56 0
-24 5 -30 38 -38 71 -20 68 -24 75 117 4 70 7 209 7 308 l0 181 -57 12 c-79
16 -92 14 -102 -11z m47 -330 c-3 -67 -5 -73 -26 -76 -13 -2 -25 3 -28 12 -7
19 34 136 48 136 5 0 8 -33 6 -72z"/>
<path d="M4797 6953 c-15 -54 -51 -181 -81 -281 l-54 -184 32 -13 c18 -8 44
-17 58 -20 29 -7 24 -17 59 118 16 63 30 32 28 -61 -2 -95 0 -99 72 -117 26
-6 28 -3 57 72 91 235 173 476 166 482 -5 5 -31 16 -57 24 l-48 16 -13 -32
c-7 -18 -26 -65 -41 -105 -15 -39 -31 -70 -36 -66 -5 3 -9 57 -9 120 l0 115
-35 15 c-64 26 -68 23 -98 -83z"/>
<path d="M2925 6994 c-43 -13 -83 -28 -88 -33 -5 -5 32 -115 87 -260 53 -139
96 -255 96 -260 0 -4 6 -15 13 -25 13 -17 15 -18 70 0 31 10 57 21 57 26 0 4
-12 37 -26 73 -15 36 -23 69 -19 73 4 4 33 -22 66 -57 l58 -64 55 12 c31 7 59
17 62 23 4 5 -32 49 -78 97 l-84 86 18 35 c24 47 24 130 -1 179 -36 69 -117
122 -186 120 -11 0 -56 -11 -100 -25z m168 -135 c34 -42 14 -119 -32 -119 -12
0 -23 19 -39 68 -12 38 -22 72 -22 77 0 16 75 -5 93 -26z"/>
<path d="M2640 6885 c-63 -30 -115 -60 -115 -67 0 -7 58 -127 128 -267 148
-292 120 -271 267 -206 47 21 86 39 88 40 4 3 -29 88 -38 98 -5 5 -29 -1 -55
-12 -26 -11 -51 -18 -56 -15 -9 5 -30 50 -44 93 -6 18 0 24 39 42 25 11 47 23
50 28 5 8 -24 94 -36 106 -3 3 -31 -5 -62 -19 l-57 -25 -19 32 c-31 50 -26 63
35 91 30 14 55 26 55 28 0 19 -41 103 -51 105 -8 1 -66 -23 -129 -52z"/>
<path d="M5101 6657 c-55 -145 -101 -269 -101 -276 0 -10 79 -51 100 -51 4 0
22 36 40 80 18 44 36 80 41 80 11 0 11 -7 -6 -105 l-13 -80 26 -22 c39 -33 82
-49 91 -35 4 7 15 90 25 184 10 95 22 181 27 190 5 9 44 37 86 63 43 25 89 54
102 64 l25 19 -52 26 c-28 14 -57 26 -65 26 -7 0 -36 -16 -63 -35 -68 -49 -78
-46 -54 15 11 28 20 55 20 61 0 10 -96 59 -116 59 -6 0 -57 -118 -113 -263z"/>
<path d="M2351 6745 c-89 -28 -140 -108 -127 -199 14 -92 79 -136 229 -156
107 -14 137 -31 137 -77 0 -27 -35 -53 -73 -53 -40 0 -42 -20 -6 -79 35 -56
34 -56 115 -21 82 35 126 158 86 236 -48 95 -101 124 -227 124 -87 0 -115 16
-115 64 0 40 11 46 86 46 30 0 54 4 54 10 0 5 -12 34 -27 65 -24 49 -30 55
-58 54 -16 0 -50 -6 -74 -14z"/>
<path d="M5639 6636 c-57 -15 -92 -40 -161 -114 -72 -79 -110 -158 -116 -243
-7 -106 29 -151 132 -165 60 -9 120 21 208 104 92 87 148 195 148 286 0 74
-16 100 -74 127 -47 21 -73 22 -137 5z m91 -121 c49 -59 -186 -334 -244 -286
-9 8 -16 20 -16 28 0 30 55 124 103 179 76 85 129 112 157 79z"/>
<path d="M2017 6528 c-54 -44 -101 -87 -104 -94 -3 -9 27 -49 78 -102 46 -48
138 -147 204 -220 79 -87 125 -131 136 -129 23 6 188 130 188 142 0 6 -15 28
-33 49 l-34 39 -46 -33 -46 -34 -46 45 -45 44 45 42 c25 23 46 44 46 48 0 13
-65 85 -77 85 -7 0 -30 -16 -52 -35 -21 -19 -43 -35 -48 -35 -14 0 -73 64 -73
81 0 8 20 30 45 49 24 19 44 39 45 44 0 14 -64 95 -75 95 -5 0 -54 -36 -108
-81z"/>
<path d="M5785 6274 c-103 -119 -188 -221 -191 -228 -3 -7 16 -30 41 -50 l45
-37 28 30 c15 17 48 55 72 85 25 30 50 55 56 56 6 0 21 -11 34 -25 13 -14 29
-25 36 -25 7 0 29 20 50 45 l37 46 -33 34 -32 33 20 30 c40 56 46 57 92 15
l42 -37 39 44 c21 25 39 48 39 52 0 9 -171 148 -182 148 -4 0 -91 -97 -193
-216z"/>
<path d="M3766 6465 c-246 -25 -367 -53 -626 -148 -196 -72 -301 -125 -513
-259 -148 -94 -230 -160 -357 -287 -331 -333 -565 -727 -665 -1116 -90 -349
-99 -728 -30 -1162 28 -174 78 -319 182 -527 246 -492 543 -829 941 -1070 129
-78 182 -103 372 -179 205 -82 307 -112 485 -142 371 -63 697 -54 1030 31 354
90 707 259 964 463 112 88 302 287 404 423 271 361 416 703 483 1138 22 143
25 532 5 655 -49 307 -103 494 -212 741 -135 304 -246 470 -468 698 -161 164
-313 285 -513 405 -197 118 -531 248 -750 290 -267 53 -511 68 -732 46z m524
-122 c235 -28 564 -125 725 -212 236 -128 287 -158 354 -208 104 -78 330 -292
409 -388 166 -200 345 -509 421 -728 117 -334 167 -824 120 -1152 -19 -124
-57 -277 -109 -430 -137 -401 -253 -594 -530 -879 -190 -196 -384 -337 -624
-455 -168 -83 -435 -169 -650 -210 -317 -62 -678 -44 -1031 51 -310 82 -546
199 -827 409 -222 165 -451 435 -595 699 -96 177 -191 425 -247 641 -41 159
-49 275 -43 584 5 262 8 290 36 428 57 272 150 504 307 766 97 163 184 270
330 407 325 304 584 462 954 584 331 110 634 138 1000 93z"/>
<path d="M3333 6180 c-209 -55 -493 -225 -714 -428 -87 -81 -216 -251 -225
-298 -9 -49 8 -84 41 -84 39 0 74 22 135 84 45 46 60 56 89 56 20 0 53 12 83
30 26 17 58 30 70 30 12 0 45 14 75 30 29 17 65 30 81 30 16 0 57 17 93 39 67
40 84 42 92 11 3 -11 18 -25 34 -32 32 -14 93 -71 108 -103 6 -11 25 -25 43
-30 17 -6 47 -26 66 -44 23 -22 45 -33 71 -36 27 -2 48 -14 76 -40 34 -34 41
-37 77 -31 39 6 98 -14 114 -38 4 -6 -7 -35 -25 -66 -28 -49 -32 -64 -32 -134
0 -73 -2 -80 -26 -98 -62 -47 -216 -60 -387 -33 -209 33 -317 88 -461 233
l-104 105 -18 -24 c-28 -36 -77 -159 -125 -310 -124 -395 -155 -800 -88 -1139
41 -208 153 -463 302 -690 163 -249 464 -502 814 -685 126 -65 329 -155 353
-155 7 0 68 23 136 51 333 135 576 284 749 458 164 164 265 309 408 581 144
277 196 502 195 860 0 188 -17 313 -70 515 -38 147 -166 463 -193 480 -5 3
-23 -9 -42 -26 -18 -17 -64 -55 -103 -83 -159 -119 -299 -182 -429 -193 l-70
-6 23 32 c13 18 35 37 50 42 35 14 71 49 71 69 0 34 -48 67 -111 79 -90 15
-209 74 -209 103 0 4 17 8 38 8 23 0 51 9 74 25 20 14 42 25 47 25 6 0 25 13
43 29 18 15 47 35 64 44 17 9 38 26 46 39 9 13 31 39 49 59 l34 36 95 -3 c52
-1 140 -7 195 -13 55 -6 123 -11 150 -11 216 -1 225 -2 299 -47 97 -60 166
-69 181 -24 11 34 -13 67 -122 170 -241 229 -509 396 -768 476 -216 67 -325
67 -392 0 -29 -29 -33 -40 -33 -83 0 -42 -6 -58 -33 -94 -18 -24 -43 -44 -55
-46 -19 -3 -27 7 -52 63 -34 76 -36 88 -15 105 8 7 15 23 15 36 0 20 -6 24
-47 29 -27 4 -74 15 -106 26 -77 26 -105 24 -170 -10 -30 -16 -71 -34 -91 -41
-49 -16 -96 -57 -96 -83 0 -20 6 -22 49 -22 51 0 91 -23 91 -52 0 -20 -33 -61
-72 -90 -40 -29 -87 -30 -123 -1 -27 21 -27 23 -19 87 4 36 8 92 8 123 1 50
-3 61 -29 88 -16 18 -42 38 -57 46 -37 19 -128 17 -215 -6z m182 -55 c52 -21
61 -53 40 -146 -22 -98 -15 -142 31 -185 34 -32 100 -54 164 -54 l30 0 0 -65
c0 -50 -3 -65 -14 -65 -8 0 -16 12 -18 27 -3 31 -27 45 -101 64 -65 16 -131
62 -152 105 -17 36 -17 41 1 201 l6 62 -40 11 c-52 14 -159 -7 -248 -49 -79
-37 -244 -139 -306 -188 -152 -123 -195 -162 -299 -272 -64 -66 -121 -121
-127 -121 -20 0 -13 39 15 88 34 60 175 206 278 286 296 232 606 358 740 301z
m546 -46 c47 -21 49 -23 44 -53 -4 -19 0 -43 9 -61 9 -17 16 -45 16 -63 0 -23
8 -41 26 -57 30 -28 27 -46 -12 -71 -26 -18 -27 -18 -48 9 -12 15 -25 27 -29
27 -4 0 -18 -18 -32 -40 -14 -22 -30 -40 -36 -40 -6 0 -18 18 -26 40 -9 22
-20 40 -24 40 -4 0 -20 -16 -35 -35 -14 -19 -30 -35 -35 -35 -16 0 -9 67 11
113 12 26 20 63 18 83 -2 26 3 39 15 46 24 13 4 38 -30 38 -29 0 -29 26 0 44
14 9 21 7 31 -6 16 -22 49 -23 66 -3 10 12 9 16 -4 21 -9 3 -16 10 -16 15 0
15 39 10 91 -12z m659 -24 c248 -74 434 -171 620 -323 120 -98 165 -152 127
-152 -7 0 -44 23 -82 51 -107 77 -320 208 -410 250 -108 50 -319 126 -376 134
-62 9 -83 -4 -103 -62 -32 -94 -119 -193 -170 -193 -27 0 -18 35 24 88 44 55
90 145 90 178 0 23 18 49 40 58 29 11 156 -4 240 -29z m-1290 -53 c0 -17 -80
-92 -98 -92 -32 0 -12 78 25 99 30 18 73 13 73 -7z m-130 -22 c0 -5 -5 -10
-10 -10 -6 0 -23 -12 -37 -26 -33 -33 -155 -96 -166 -85 -4 4 -5 15 -1 24 7
18 91 77 110 77 6 0 25 7 40 15 33 17 64 20 64 5z m1348 -46 c6 -2 12 -11 12
-20 0 -14 -7 -16 -41 -11 -49 6 -71 23 -49 37 13 8 39 6 78 -6z m-1358 -47 c0
-8 -10 -18 -22 -24 -13 -6 -48 -30 -78 -55 -97 -79 -170 -117 -170 -90 0 15
149 131 207 161 45 24 63 26 63 8z m1505 -18 c46 -56 -10 -67 -68 -14 -32 30
-28 45 13 45 19 0 36 -10 55 -31z m-209 7 c14 -11 16 -17 7 -26 -15 -16 -67 1
-71 23 -4 22 36 23 64 3z m-1186 -17 c0 -13 -40 -31 -56 -25 -17 7 -8 34 14
39 21 4 42 -2 42 -14z m1490 0 c0 -5 -11 -9 -25 -9 -24 0 -32 10 -19 22 8 8
44 -3 44 -13z m-1820 -19 c0 -6 -27 -39 -61 -73 -33 -34 -67 -74 -75 -89 -14
-27 -47 -38 -58 -20 -10 16 56 107 108 149 49 40 86 54 86 33z m1650 -20 c25
-25 26 -40 3 -40 -26 0 -85 39 -78 50 10 17 54 11 75 -10z m-1293 -6 c8 -20
-21 -49 -41 -41 -19 8 -21 43 -3 50 23 10 38 7 44 -9z m1099 2 c14 -11 16 -18
8 -26 -17 -17 -54 -2 -54 21 0 23 19 25 46 5z m539 -44 c89 -51 275 -176 275
-184 0 -24 -75 6 -185 73 -100 60 -197 137 -190 149 7 12 25 5 100 -38z
m-1748 11 c5 -15 -36 -53 -59 -53 -22 0 -23 18 -2 48 17 24 54 27 61 5z m1614
-29 c18 -19 62 -56 97 -80 121 -87 44 -85 -88 2 -87 56 -107 79 -90 99 20 24
43 18 81 -21z m-2031 20 c0 -14 -111 -152 -134 -167 -29 -19 -46 -22 -46 -7 0
15 153 179 168 180 6 0 12 -3 12 -6z m1754 -9 c20 -8 36 -20 36 -25 0 -19 -27
-21 -64 -6 -25 11 -34 19 -30 30 8 20 13 20 58 1z m-1179 -5 c11 -18 -15 -40
-46 -40 -33 0 -36 6 -12 32 18 20 48 24 58 8z m994 -3 c13 -16 5 -27 -20 -27
-20 0 -33 27 -16 34 20 8 24 7 36 -7z m379 -72 c64 -48 68 -66 8 -31 -57 33
-66 33 -66 -4 0 -16 -4 -30 -8 -30 -16 0 -80 67 -74 77 11 17 66 42 77 35 6
-4 34 -25 63 -47z m-638 15 c14 -26 5 -40 -25 -40 -30 0 -42 30 -19 47 24 18
31 16 44 -7z m209 11 c19 -12 6 -43 -16 -39 -21 4 -31 48 -11 48 7 0 19 -4 27
-9z m174 -5 c19 -15 23 -46 6 -46 -19 0 -69 34 -69 47 0 17 40 16 63 -1z
m-1065 -14 c4 -12 -52 -45 -62 -35 -12 13 -5 30 17 41 25 12 39 11 45 -6z
m387 -7 c0 -15 -8 -21 -32 -23 -27 -3 -33 0 -33 16 0 26 10 33 40 30 17 -2 25
-9 25 -23z m155 -10 c0 -27 -17 -36 -42 -23 -21 10 -24 44 -5 51 24 8 47 -5
47 -28z m-704 3 c7 -11 -21 -38 -40 -38 -22 0 -39 18 -33 34 7 19 62 22 73 4z
m985 -25 c7 -19 5 -23 -11 -23 -20 0 -44 32 -33 44 13 12 36 1 44 -21z m-761
-13 c0 -23 -35 -44 -58 -35 -15 6 -13 10 11 31 34 29 47 30 47 4z m930 0 c24
-24 26 -40 5 -40 -17 0 -55 35 -55 50 0 17 29 11 50 -10z m158 -28 c3 -26 -1
-32 -20 -37 -13 -2 -32 -4 -43 -2 -20 2 -22 -4 -13 -58 2 -17 -3 -20 -32 -20
-31 0 -35 -3 -38 -28 -4 -32 -25 -45 -46 -28 -20 17 -46 2 -46 -25 0 -17 -6
-24 -20 -24 -31 0 -24 30 16 64 20 17 56 50 79 74 23 23 47 42 53 42 6 0 13 9
17 19 6 21 63 61 80 57 6 -1 11 -17 13 -34z m-1018 5 c0 -23 -39 -52 -51 -40
-8 8 -5 17 10 32 24 24 41 27 41 8z m597 -3 c3 -8 -2 -23 -11 -32 -15 -15 -17
-15 -32 0 -21 21 -11 48 16 48 11 0 23 -7 27 -16z m-827 -8 c0 -16 -37 -46
-57 -46 -18 0 -16 20 4 42 19 22 53 24 53 4z m705 4 c3 -5 3 -21 -1 -35 -8
-33 -44 -35 -44 -2 0 35 31 60 45 37z m329 -35 c10 -27 7 -35 -12 -35 -15 0
-52 54 -52 76 0 11 58 -27 64 -41z m-586 13 c-2 -15 -11 -24 -25 -26 -19 -3
-23 1 -23 22 0 21 5 26 26 26 21 0 25 -4 22 -22z m136 0 c16 -26 -5 -44 -33
-29 -29 16 -29 54 0 49 12 -2 27 -11 33 -20z m-512 -33 c-6 -37 -62 -62 -62
-28 0 23 31 54 49 51 10 -2 15 -12 13 -23z m883 -5 c11 -12 15 -26 10 -37 -6
-16 -8 -16 -26 6 -34 41 -20 71 16 31z m-797 -34 c4 -18 -24 -56 -40 -56 -4 0
-8 13 -8 28 0 46 40 70 48 28z m84 8 c11 -10 -23 -94 -38 -94 -18 0 -18 6 4
57 17 42 23 49 34 37z m88 -41 c0 -53 -12 -79 -29 -69 -14 9 -14 71 -1 97 18
33 30 21 30 -28z m526 23 c8 -34 -2 -46 -37 -46 -25 0 -29 4 -29 28 0 35 6 42
36 42 17 0 25 -7 30 -24z m-281 -6 c10 -15 -14 -50 -34 -50 -23 0 -35 28 -20
46 13 16 45 18 54 4z m-147 -16 c-5 -25 -35 -41 -49 -27 -18 18 -3 43 26 43
19 0 26 -5 23 -16z m286 -6 c15 -24 -5 -42 -38 -34 -25 6 -35 33 -19 50 12 12
45 2 57 -16z m-237 -73 c1 -5 -6 -25 -17 -42 -15 -25 -27 -33 -50 -33 -38 0
-57 31 -32 52 41 36 91 48 99 23z m138 -30 c0 -40 0 -40 -40 -40 -36 0 -40 3
-43 27 -3 21 3 30 25 42 44 24 58 17 58 -29z m293 8 c-4 -44 -19 -52 -48 -23
-26 26 -12 60 26 60 23 0 25 -3 22 -37z m-130 -5 c4 -34 -20 -51 -58 -43 -34
7 -42 42 -12 51 9 3 24 9 32 14 23 13 35 6 38 -22z m-263 -98 c3 -5 -1 -20 -9
-33 -9 -12 -21 -52 -28 -87 -15 -76 -25 -81 -94 -48 -41 19 -49 28 -52 53 -2
19 6 43 20 65 19 28 33 36 78 46 74 15 78 15 85 4z m251 -12 c7 -5 19 -39 28
-76 10 -37 29 -84 44 -106 25 -37 25 -39 8 -52 -28 -20 -74 4 -118 62 -40 52
-92 169 -83 184 7 11 105 1 121 -12z m-161 -89 c11 -23 34 -62 52 -88 18 -25
28 -48 23 -49 -15 -5 -117 75 -122 96 -8 29 3 82 17 82 6 0 20 -18 30 -41z
m-1297 -19 l23 -30 -36 0 c-36 0 -42 10 -29 44 9 23 17 20 42 -14z m1695 -41
c67 -59 76 -92 25 -87 -27 2 -39 12 -65 53 -31 47 -42 85 -25 85 4 0 34 -23
65 -51z m157 -19 c0 -13 -7 -20 -20 -20 -13 0 -20 7 -20 20 0 13 7 20 20 20
13 0 20 -7 20 -20z m574 -6 c14 -36 7 -44 -39 -44 -25 0 -45 3 -45 8 0 7 60
50 71 51 4 1 10 -6 13 -15z m-2319 -20 l30 -24 -100 2 c-95 3 -100 4 -103 26
-3 21 0 22 70 22 63 -1 77 -4 103 -26z m1195 -81 c0 -2 -29 -3 -65 -3 -72 0
-79 8 -39 45 l26 24 39 -31 c21 -17 39 -33 39 -35z m-1110 17 l25 -20 -152 0
c-91 0 -154 4 -158 10 -15 24 12 30 133 30 111 0 130 -3 152 -20z m2279 -3 c6
-8 8 -17 4 -20 -3 -4 -72 -7 -152 -7 l-146 1 35 19 c28 15 56 19 141 20 77 0
110 -4 118 -13z m-2168 -61 l54 -25 -97 0 c-70 -1 -98 2 -98 11 0 9 -3 9 -12
0 -8 -8 -53 -12 -134 -12 -126 0 -156 9 -119 37 14 10 61 13 186 13 155 0 170
-2 220 -24z m1101 12 c80 -24 36 -33 -175 -36 -211 -2 -233 1 -189 34 22 17
307 19 364 2z m1093 -23 c0 -15 -204 -19 -221 -4 -10 8 -14 8 -14 0 0 -8 -41
-11 -132 -10 -123 0 -130 2 -98 14 43 17 465 17 465 0z m-1005 -5 c12 -8 9
-10 -12 -10 -16 0 -28 5 -28 10 0 13 20 13 40 0z m-1372 -42 c-5 -15 -258 -24
-258 -10 0 19 18 22 138 22 94 0 123 -3 120 -12z m422 -3 c0 -13 -24 -15 -177
-13 -130 2 -177 6 -181 16 -3 9 37 12 177 12 155 0 181 -2 181 -15z m438 3
c-6 -17 -368 -24 -368 -8 0 8 27 9 83 5 45 -3 96 -2 112 4 47 15 178 14 173
-1z m430 0 c-4 -10 -49 -13 -183 -13 -134 0 -179 3 -182 13 -4 9 37 12 182 12
145 0 186 -3 183 -12z m402 -3 c0 -13 -25 -15 -164 -15 -136 0 -165 3 -170 15
-5 13 18 15 164 15 144 0 170 -2 170 -15z m424 0 c-5 -13 -32 -15 -182 -13
-129 2 -176 6 -180 16 -3 9 38 12 182 12 162 0 185 -2 180 -15z m279 0 c-4
-16 -205 -13 -211 3 -3 10 20 12 105 10 65 -2 107 -7 106 -13z m-2343 -29 c6
-18 18 -26 41 -28 l31 -3 -20 -25 c-15 -19 -18 -30 -11 -49 13 -32 7 -35 -30
-16 -28 14 -34 14 -62 0 -37 -20 -43 -16 -28 19 11 23 9 29 -11 51 l-23 25 31
0 c25 0 35 6 44 25 14 32 26 32 38 1z m420 0 c7 -18 18 -26 42 -28 l33 -3 -24
-24 c-20 -20 -22 -27 -12 -48 15 -33 11 -36 -27 -18 -28 15 -34 15 -62 0 -33
-17 -52 -13 -32 7 18 18 15 39 -10 65 l-21 23 31 0 c25 0 35 6 44 25 14 32 26
32 38 1z m438 -1 c9 -19 19 -25 44 -25 l31 0 -23 -25 c-21 -23 -23 -29 -13
-55 13 -35 12 -35 -29 -14 -29 15 -34 15 -65 0 -37 -18 -38 -17 -21 19 10 22
8 29 -12 50 l-23 25 30 0 c22 0 33 6 41 25 6 14 15 25 20 25 5 0 14 -11 20
-25z m432 0 c9 -18 22 -25 42 -25 l29 0 -22 -29 c-18 -24 -19 -32 -9 -51 16
-30 7 -35 -28 -15 -27 16 -31 16 -61 0 -39 -20 -44 -17 -27 15 12 22 10 28
-12 53 l-26 27 36 0 c30 0 37 4 42 25 4 14 10 25 15 25 4 0 14 -11 21 -25z
m398 0 c9 -19 19 -25 43 -25 l30 0 -20 -26 c-16 -20 -18 -31 -10 -51 13 -34 6
-38 -29 -18 -26 16 -31 16 -60 1 -41 -21 -42 -21 -29 14 10 26 8 32 -13 55
l-23 25 35 0 c30 0 37 4 42 25 4 14 10 25 15 25 4 0 13 -11 19 -25z m430 0 c9
-19 19 -25 44 -25 l31 0 -22 -24 c-20 -22 -22 -29 -13 -55 13 -36 11 -36 -28
-16 -27 14 -33 14 -61 0 -36 -19 -45 -15 -29 14 9 18 7 27 -10 51 l-21 30 29
0 c21 0 32 7 40 25 6 14 15 25 20 25 5 0 14 -11 20 -25z m-2263 -25 c18 -20
17 -20 -78 -20 -59 0 -98 4 -103 11 -12 19 18 29 92 29 58 0 74 -4 89 -20z
m420 0 c18 -20 17 -20 -85 -20 -102 0 -103 0 -85 20 15 16 31 20 85 20 54 0
70 -4 85 -20z m433 8 c24 -24 10 -28 -88 -28 -98 0 -112 4 -88 28 16 16 160
16 176 0z m440 -8 c12 -20 10 -20 -94 -20 -106 0 -107 0 -89 20 15 17 31 20
94 20 65 0 78 -3 89 -20z m400 0 c12 -19 10 -20 -79 -20 -91 0 -92 0 -74 20
14 16 31 20 79 20 50 0 63 -4 74 -20z m422 0 c10 -19 8 -20 -91 -20 l-102 0
23 20 c18 16 37 20 91 20 58 0 70 -3 79 -20z m389 7 c17 -22 3 -27 -77 -27
-74 0 -75 0 -57 20 22 24 115 29 134 7z m-2070 -53 c67 -14 25 -24 -99 -24
-116 0 -156 8 -117 23 18 8 179 8 216 1z m1299 -11 c3 -10 -25 -13 -117 -13
-125 0 -169 16 -63 23 104 7 175 3 180 -10z m-1688 -3 c0 -6 -47 -10 -120 -10
-73 0 -120 4 -120 10 0 6 47 10 120 10 73 0 120 -4 120 -10z m860 0 c0 -6 -53
-10 -140 -10 -87 0 -140 4 -140 10 0 6 53 10 140 10 87 0 140 -4 140 -10z
m430 0 c0 -6 -52 -10 -135 -10 -83 0 -135 4 -135 10 0 6 52 10 135 10 83 0
135 -4 135 -10z m830 0 c0 -6 -52 -10 -135 -10 -83 0 -135 4 -135 10 0 6 52
10 135 10 83 0 135 -4 135 -10z m365 0 c-3 -6 -50 -10 -106 -10 -59 0 -99 4
-99 10 0 6 42 10 106 10 67 0 103 -4 99 -10z m-2495 -45 c0 -12 -20 -15 -120
-15 -110 0 -132 5 -113 23 3 4 57 7 120 7 94 0 113 -3 113 -15z m420 8 c-1
-28 -20 -32 -124 -28 -110 3 -123 6 -111 24 7 12 235 16 235 4z m438 -10 c3
-10 -27 -13 -127 -13 -120 0 -143 4 -124 24 13 13 246 2 251 -11z m432 2 c0
-13 -21 -15 -125 -15 -104 0 -125 2 -125 15 0 13 21 15 125 15 104 0 125 -2
125 -15z m400 0 c0 -9 -7 -18 -15 -21 -26 -10 -198 10 -203 24 -3 9 23 12 107
12 93 0 111 -2 111 -15z m428 -2 c3 -10 -26 -13 -122 -13 -106 0 -126 2 -126
15 0 13 18 15 122 13 86 -2 123 -7 126 -15z m390 0 c3 -10 -22 -13 -102 -13
-89 0 -106 3 -106 15 0 13 16 15 102 13 70 -2 103 -7 106 -15z m-2401 -9 c-3
-3 -12 -4 -19 -1 -8 3 -5 6 6 6 11 1 17 -2 13 -5z m420 0 c-3 -3 -12 -4 -19
-1 -8 3 -5 6 6 6 11 1 17 -2 13 -5z m430 0 c-3 -3 -12 -4 -19 -1 -8 3 -5 6 6
6 11 1 17 -2 13 -5z m436 -1 c-7 -2 -19 -2 -25 0 -7 3 -2 5 12 5 14 0 19 -2
13 -5z m400 0 c-7 -2 -19 -2 -25 0 -7 3 -2 5 12 5 14 0 19 -2 13 -5z m424 1
c-3 -3 -12 -4 -19 -1 -8 3 -5 6 6 6 11 1 17 -2 13 -5z m293 -49 c0 -15 -269
-19 -286 -4 -10 8 -14 8 -14 0 0 -15 -406 -16 -416 0 -4 8 -9 8 -17 0 -16 -16
-379 -15 -395 1 -9 9 -12 9 -12 0 0 -18 -406 -17 -414 1 -5 10 -7 10 -12 0 -4
-10 -57 -13 -214 -13 -157 0 -210 3 -214 13 -5 10 -7 10 -12 0 -8 -17 -389
-19 -400 -2 -4 8 -9 8 -17 0 -7 -7 -71 -11 -179 -11 -143 0 -168 2 -168 15 0
13 158 15 1385 13 915 -2 1385 -6 1385 -13z m-2454 -51 c-3 -9 -6 -18 -6 -20
0 -2 -70 -4 -155 -4 -123 0 -155 3 -155 13 0 8 3 17 7 20 3 4 76 7 161 7 136
0 153 -2 148 -16z m424 8 c0 -27 -30 -32 -182 -32 -87 0 -158 2 -158 4 0 2 -3
11 -6 20 -5 14 13 16 170 16 97 0 176 -4 176 -8z m430 -12 c-10 -19 -21 -20
-180 -20 -159 0 -170 1 -180 20 -11 20 -8 20 180 20 188 0 191 0 180 -20z
m440 12 c0 -27 -30 -32 -187 -32 -152 0 -163 1 -173 20 -11 20 -8 20 175 20
102 0 185 -4 185 -8z m398 -12 c-12 -19 -24 -20 -170 -20 -87 0 -158 2 -158 4
0 2 -3 11 -6 20 -5 14 13 16 170 16 174 0 176 0 164 -20z m442 12 c0 -27 -30
-32 -192 -32 -92 0 -168 2 -168 4 0 2 -3 11 -6 20 -5 14 14 16 180 16 102 0
186 -4 186 -8z m340 -12 c0 -19 -7 -20 -135 -20 -74 0 -135 2 -135 4 0 2 -3
11 -6 20 -5 14 10 16 135 16 134 0 141 -1 141 -20z m-2372 -52 l24 -3 -20 -26
c-14 -17 -18 -30 -11 -40 19 -31 10 -40 -22 -23 -26 13 -36 13 -60 3 -35 -14
-45 -8 -30 19 8 16 6 25 -10 46 l-20 26 24 0 c16 0 31 10 42 27 l18 27 21 -26
c12 -15 32 -28 44 -30z m372 27 c10 -18 22 -25 43 -25 l30 0 -23 -25 c-20 -22
-22 -28 -11 -51 11 -25 11 -26 -11 -19 -30 10 -67 10 -98 0 -24 -8 -25 -8 -8
17 16 24 16 27 -2 43 -27 24 -25 35 5 35 17 0 29 8 37 25 6 14 14 25 18 25 4
0 13 -11 20 -25z m438 0 c8 -17 20 -25 37 -25 30 0 32 -11 5 -35 -18 -16 -18
-19 -2 -43 17 -25 16 -25 -8 -17 -31 10 -68 10 -98 0 -22 -7 -22 -6 -11 19 11
23 9 29 -11 51 l-23 25 30 0 c22 0 33 6 41 25 6 14 15 25 20 25 5 0 14 -11 20
-25z m430 0 c9 -19 19 -25 44 -25 l31 0 -22 -24 c-16 -17 -20 -30 -15 -50 7
-30 7 -30 -34 -15 -24 8 -37 7 -61 -6 -33 -16 -39 -8 -19 25 10 16 9 23 -12
45 l-23 25 30 0 c22 0 33 6 41 25 6 14 15 25 20 25 5 0 14 -11 20 -25z m451
-27 l23 -3 -20 -25 c-15 -19 -18 -29 -10 -43 13 -26 4 -32 -30 -18 -21 9 -36
9 -57 1 -33 -13 -40 -8 -27 17 8 14 5 24 -10 43 l-20 25 29 3 c21 2 34 11 42
29 l12 27 22 -27 c12 -14 33 -27 46 -29z m389 27 c9 -19 19 -25 44 -25 l31 0
-23 -25 c-20 -21 -22 -28 -12 -50 13 -28 6 -31 -32 -14 -19 9 -32 9 -56 -1
-37 -15 -46 -9 -29 19 12 17 10 24 -11 46 l-23 25 30 0 c22 0 33 6 41 25 6 14
15 25 20 25 5 0 14 -11 20 -25z m-2260 -32 c3 -10 -27 -13 -127 -13 -111 0
-131 2 -131 15 0 13 18 15 127 13 90 -2 128 -7 131 -15z m412 2 c11 -13 1 -15
-84 -15 -88 0 -108 5 -89 23 3 4 41 7 83 7 57 0 81 -4 90 -15z m440 0 c11 -13
-1 -15 -100 -15 -99 0 -111 2 -100 15 9 11 34 15 100 15 66 0 91 -4 100 -15z
m430 0 c11 -13 -1 -15 -95 -15 -94 0 -106 2 -95 15 9 11 34 15 95 15 61 0 86
-4 95 -15z m408 -2 c3 -10 -19 -13 -87 -13 -77 0 -90 2 -84 15 4 13 21 15 86
13 53 -2 82 -7 85 -15z m430 0 c3 -10 -21 -13 -97 -13 -93 0 -113 5 -94 24 13
12 186 2 191 -11z m442 2 c0 -12 -18 -15 -105 -15 -89 0 -104 2 -99 15 5 12
26 15 105 15 81 0 99 -3 99 -15z m10 -55 c0 -19 -7 -20 -125 -20 -103 0 -125
3 -125 15 0 12 22 15 113 18 61 1 118 4 125 5 6 1 12 -7 12 -18z m-2536 -5
c-5 -13 -29 -15 -152 -13 -105 2 -147 6 -150 16 -3 9 32 12 152 12 135 0 155
-2 150 -15z m416 0 c0 -13 -21 -15 -125 -15 -104 0 -125 2 -125 15 0 13 21 15
125 15 104 0 125 -2 125 -15z m438 3 c-4 -10 -40 -13 -138 -13 -98 0 -134 3
-137 13 -4 9 28 12 137 12 109 0 141 -3 138 -12z m432 -3 c0 -13 -22 -15 -135
-15 -113 0 -135 2 -135 15 0 13 22 15 135 15 113 0 135 -2 135 -15z m400 0 c0
-12 -20 -15 -120 -15 -100 0 -120 3 -120 15 0 13 20 15 120 15 100 0 120 -2
120 -15z m440 0 c0 -13 -22 -15 -134 -15 -110 0 -135 3 -140 15 -5 13 14 15
134 15 118 0 140 -2 140 -15z m-2140 -50 c0 -13 -23 -15 -145 -15 -122 0 -145
2 -145 15 0 13 23 15 145 15 122 0 145 -2 145 -15z m130 -10 c0 -3 -17 -5 -37
-5 -35 1 -37 2 -19 15 13 10 24 11 37 4 11 -5 19 -12 19 -14z m288 8 c3 -10
-24 -13 -112 -13 -98 0 -116 2 -116 15 0 13 17 15 112 13 78 -2 113 -7 116
-15z m116 2 c18 -14 17 -15 -24 -15 -41 0 -42 1 -24 15 10 8 21 14 24 14 3 0
14 -6 24 -14z m316 0 c0 -12 -20 -15 -120 -15 -100 0 -120 3 -120 15 0 13 20
15 120 15 100 0 120 -2 120 -15z m430 0 c0 -12 -20 -15 -120 -15 -100 0 -120
3 -120 15 0 13 20 15 120 15 100 0 120 -2 120 -15z m410 0 c0 -13 -16 -15
-107 -13 -74 2 -108 7 -111 16 -3 9 23 12 107 12 93 0 111 -2 111 -15z m430 0
c0 -12 -20 -15 -120 -15 -100 0 -120 3 -120 15 0 13 20 15 120 15 100 0 120
-2 120 -15z m440 0 c0 -13 -18 -15 -122 -13 -86 2 -123 7 -126 16 -3 9 26 12
122 12 106 0 126 -2 126 -15z m-1580 -5 c11 -7 3 -10 -28 -10 -26 0 -41 4 -37
10 8 13 45 13 65 0z m425 0 c4 -6 -9 -10 -32 -10 -28 0 -34 3 -23 10 20 13 47
13 55 0z m410 0 c4 -6 -8 -10 -30 -10 -22 0 -34 4 -30 10 3 6 17 10 30 10 13
0 27 -4 30 -10z m430 0 c4 -6 -9 -10 -32 -10 -28 0 -34 3 -23 10 20 13 47 13
55 0z m303 -67 c-3 -17 -79 -18 -1411 -21 -1402 -2 -1407 -2 -1407 18 0 20 6
20 1411 20 1338 0 1410 -1 1407 -17z m5 -227 c-2 -148 -24 -315 -54 -414 -26
-84 -69 -182 -80 -182 -11 0 -12 713 -2 724 4 4 37 6 73 4 l65 -3 -2 -129z
m-2673 -261 c0 -212 -3 -385 -6 -385 -10 0 -64 130 -89 217 -34 116 -53 247
-61 416 l-7 137 81 0 82 0 0 -385z m438 -287 c2 -553 0 -668 -11 -668 -8 0
-45 33 -84 73 l-71 73 3 560 c1 307 3 576 4 597 l1 38 78 -3 77 -3 3 -667z
m437 618 l0 -49 -77 -2 -78 -1 0 53 0 54 78 -3 77 -3 0 -49z m455 -166 l0
-220 -85 0 -85 0 0 220 0 220 85 0 85 0 0 -220z m460 160 l0 -60 -75 0 -75 0
0 60 0 60 75 0 75 0 0 -60z m460 -547 l-1 -608 -79 -85 -79 -85 -1 693 0 692
80 0 80 0 0 -607z m-1344 452 c86 -25 144 -107 144 -200 0 -75 -42 -145 -162
-272 -105 -110 -132 -148 -149 -205 l-8 -28 160 0 159 0 0 -60 0 -60 -246 0
-246 0 4 73 c5 103 30 146 180 309 136 147 174 206 162 255 -23 96 -151 108
-204 20 -11 -18 -20 -40 -20 -49 0 -15 -9 -18 -54 -18 -52 0 -55 1 -61 30 -16
71 53 184 126 207 50 16 158 15 215 -2z m929 -26 c92 -25 144 -98 145 -202 0
-65 -9 -88 -53 -134 -17 -18 -29 -34 -26 -35 2 -2 18 -10 34 -19 40 -22 91
-99 100 -148 12 -70 -11 -147 -58 -195 -67 -69 -130 -87 -291 -84 l-131 3 -3
413 -2 412 122 0 c68 0 141 -5 163 -11z m-994 -140 c23 -23 21 -66 -8 -126
-16 -34 -95 -113 -113 -113 -6 0 -10 37 -10 96 0 82 3 100 21 122 35 46 77 54
110 21z m559 -219 l0 -50 -145 0 -145 0 0 50 0 50 145 0 145 0 0 -50z m-62
-708 l2 -583 -35 -14 c-48 -21 -65 -19 -108 10 l-37 26 0 568 c0 312 3 571 7
575 4 4 43 5 88 4 l80 -3 3 -583z m-458 468 c0 -49 -1 -50 -30 -50 -32 0 -36
9 -19 43 12 22 39 57 46 57 1 0 3 -22 3 -50z m0 -590 c0 -232 -3 -290 -13
-290 -16 0 -103 54 -134 83 -22 20 -23 27 -23 182 0 89 3 196 6 238 l7 77 78
0 79 0 0 -290z m918 18 l-3 -272 -70 -38 c-38 -21 -76 -38 -82 -38 -10 0 -13
69 -13 310 l0 310 85 0 85 0 -2 -272z"/>
<path d="M4360 3865 l0 -95 34 0 c81 0 126 39 126 108 0 60 -27 82 -100 82
l-60 0 0 -95z m112 41 c22 -32 -4 -91 -38 -85 -14 3 -20 14 -22 43 -5 54 3 69
30 60 13 -4 26 -12 30 -18z"/>
<path d="M4362 3508 l3 -113 55 -3 c65 -3 96 11 127 57 27 39 29 80 8 121 -21
41 -43 50 -125 50 l-71 0 3 -112z m126 46 c47 -33 17 -114 -44 -114 l-34 0 0
65 c0 64 0 65 28 65 15 0 38 -7 50 -16z"/>
<path d="M2285 5183 c-37 -43 -74 -94 -83 -113 -9 -19 -18 -37 -19 -39 -2 -2
-14 2 -28 9 -33 17 -39 10 -58 -70 -9 -36 -30 -103 -47 -150 -26 -73 -29 -93
-24 -145 4 -33 17 -81 30 -106 19 -38 22 -56 17 -98 -3 -28 -9 -51 -14 -51 -4
0 -27 23 -50 50 -70 83 -71 80 -67 -159 l3 -209 -23 9 c-13 5 -27 9 -32 9 -19
0 -40 -33 -40 -64 0 -47 26 -66 88 -66 40 0 57 -5 81 -26 44 -36 29 -47 -32
-24 -29 11 -58 20 -64 20 -10 0 -13 -28 -13 -107 1 -158 29 -207 170 -298 68
-44 113 -85 77 -72 -10 4 -22 7 -27 7 -4 0 -27 16 -50 35 -26 21 -53 35 -69
35 -60 0 -88 -84 -41 -122 19 -15 33 -18 65 -13 l41 6 18 -83 c26 -121 73
-216 130 -263 l46 -39 -25 -14 c-20 -10 -25 -20 -25 -50 0 -21 5 -43 12 -50
18 -18 70 -14 98 8 28 22 71 26 101 10 33 -18 21 -30 -30 -30 -57 0 -81 -7
-81 -25 0 -25 127 -253 174 -313 82 -104 163 -145 307 -156 42 -3 89 -10 103
-16 15 -5 45 -10 67 -10 48 0 79 -15 79 -37 0 -13 -7 -14 -42 -9 -128 20 -155
19 -177 -3 -49 -49 -13 -121 60 -121 35 0 47 -6 73 -34 73 -80 188 -175 257
-211 66 -35 84 -40 164 -45 86 -5 90 -6 103 -32 7 -16 17 -28 23 -28 5 0 9 -6
9 -14 0 -8 -22 -19 -52 -28 -70 -19 -74 -42 -17 -86 84 -64 160 -40 289 89 82
82 110 94 110 46 0 -26 17 -47 38 -47 8 0 25 -9 39 -20 39 -30 88 -26 114 10
l22 29 45 -40 c25 -21 73 -53 108 -70 57 -28 66 -30 98 -19 20 6 38 16 41 21
4 5 14 9 23 9 40 0 93 23 108 46 15 23 15 26 0 43 -20 22 -20 35 -1 54 11 12
29 14 75 10 59 -6 60 -5 96 33 35 36 40 38 91 36 80 -3 131 13 151 49 9 16 40
43 68 60 66 37 76 50 72 91 -2 27 -8 34 -35 42 -18 5 -33 13 -33 17 0 17 59 9
112 -16 69 -32 108 -32 147 1 53 44 35 104 -35 123 -15 4 -29 11 -31 17 -5 15
97 62 160 73 68 12 72 14 109 56 15 18 50 42 77 54 51 22 61 35 61 81 0 30 12
44 50 54 55 16 70 29 85 79 9 32 31 67 60 98 48 51 55 77 28 104 -12 12 -30
16 -67 13 -56 -3 -54 -5 -39 62 8 31 16 38 69 60 74 30 171 85 202 113 25 24
29 64 7 93 -21 27 -19 42 11 77 20 24 24 37 20 63 -6 30 -5 32 28 38 53 10 86
41 86 81 0 36 -20 55 -59 55 -25 0 -27 17 -5 41 22 24 43 87 44 129 0 19 11
53 25 75 30 49 31 65 6 113 -17 34 -18 41 -5 77 7 22 14 50 14 63 0 27 -22 73
-44 91 -26 22 -31 93 -8 137 36 72 35 110 -3 191 -39 83 -63 97 -114 67 -17
-10 -33 -15 -36 -12 -3 3 0 49 6 102 10 84 9 99 -5 121 -9 13 -16 41 -16 62 0
44 -22 80 -55 93 -19 7 -25 19 -31 57 -14 97 -61 138 -108 94 -12 -11 -26 -21
-32 -21 -5 0 -22 22 -38 49 -33 56 -59 71 -120 71 -76 0 -85 -24 -60 -162 6
-35 4 -37 -22 -43 -64 -14 -66 -22 -47 -167 7 -52 15 -74 36 -96 15 -15 27
-35 27 -44 0 -30 40 -68 71 -68 18 0 32 -6 36 -16 3 -8 -11 -52 -31 -97 -45
-102 -46 -139 -7 -175 25 -22 30 -36 32 -77 1 -28 -6 -66 -15 -87 -9 -21 -16
-48 -16 -61 0 -14 -9 -36 -20 -50 -22 -28 -25 -53 -10 -92 7 -20 6 -34 -6 -56
-12 -24 -13 -37 -5 -61 8 -23 7 -37 -5 -60 -13 -26 -14 -37 -4 -67 6 -20 10
-58 8 -86 -3 -49 -4 -50 -38 -53 -66 -7 -101 -69 -81 -147 7 -29 8 -52 1 -69
-8 -22 -16 -26 -50 -26 -54 0 -74 -30 -64 -95 6 -41 4 -49 -19 -73 -15 -15
-30 -45 -35 -67 -8 -39 -9 -40 -52 -40 -41 0 -44 -2 -66 -45 -12 -24 -25 -62
-29 -85 -5 -32 -12 -43 -38 -55 -30 -14 -32 -18 -35 -75 -2 -44 -9 -66 -24
-83 -21 -21 -21 -25 -9 -87 l13 -65 -42 -47 c-23 -27 -47 -48 -53 -48 -19 0
-8 38 19 66 34 35 33 100 -1 134 -28 29 -54 31 -96 10 -56 -29 -65 -102 -20
-159 26 -32 28 -41 19 -67 -5 -16 -14 -29 -18 -29 -5 0 -15 -3 -24 -6 -10 -4
-19 5 -30 30 -17 40 -53 55 -92 37 -14 -6 -36 -11 -50 -11 -42 0 -82 -27 -95
-65 -7 -19 -18 -36 -24 -36 -5 -1 -21 -2 -35 -4 -47 -3 -68 -16 -94 -55 -22
-34 -32 -40 -60 -40 -27 0 -41 -8 -66 -37 -32 -36 -32 -36 -60 -20 -36 22 -96
22 -104 1 -11 -28 -6 -61 10 -74 9 -8 14 -25 12 -44 -2 -25 -11 -35 -48 -53
-55 -28 -80 -29 -114 -2 -34 27 -35 71 -1 111 30 36 31 48 5 81 -34 42 -105
44 -132 3 -15 -22 -7 -65 17 -94 29 -35 48 -79 36 -86 -14 -9 -94 106 -103
149 -12 53 -58 123 -117 178 -56 52 -81 66 -200 112 -48 18 -120 49 -159 69
-68 34 -72 38 -72 71 0 53 -59 75 -95 35 -24 -26 -16 -80 24 -167 20 -41 28
-70 22 -76 -28 -28 -58 45 -76 184 -8 59 -22 126 -31 150 -28 70 -86 149 -171
227 -43 41 -93 88 -110 105 -31 29 -33 30 -52 13 -19 -17 -20 -17 -26 31 -17
133 -56 248 -114 337 -36 55 -41 69 -41 122 0 52 -4 64 -25 84 -21 20 -25 32
-25 83 0 68 -20 155 -55 232 -21 49 -22 58 -11 97 24 80 28 180 12 291 -17
111 -16 125 23 287 12 47 21 99 21 115 0 27 10 71 36 163 6 19 3 22 -24 22
-17 0 -34 6 -39 13 -4 6 -9 62 -10 122 -1 61 -2 113 -2 118 -1 4 -12 7 -25 7
-17 0 -42 -22 -91 -77z m3287 -96 c-3 -34 3 -45 47 -93 28 -31 51 -60 51 -65
0 -5 -11 -9 -25 -9 -18 0 -25 -5 -25 -19 0 -14 13 -24 49 -36 45 -14 61 -30
61 -56 0 -5 -7 -9 -15 -9 -26 0 -16 -30 17 -50 26 -15 29 -20 15 -25 -23 -9
-81 12 -109 39 -12 13 -33 28 -44 34 -18 10 -21 18 -17 54 4 34 0 48 -16 67
-19 21 -21 32 -15 81 4 37 2 65 -6 79 -15 28 -6 54 17 49 14 -3 17 -12 15 -41z
m-3237 -67 c0 -94 -10 -143 -27 -138 -7 3 -11 28 -9 71 1 37 -2 67 -7 67 -14
0 -34 -54 -32 -87 3 -44 0 -49 -15 -29 -27 36 -19 96 21 154 53 79 69 70 69
-38z m3413 8 c7 -7 12 -30 12 -53 0 -35 4 -43 30 -58 25 -15 30 -25 30 -55 0
-22 10 -54 25 -77 24 -40 34 -81 15 -70 -5 3 -26 36 -47 73 -20 37 -58 101
-85 143 -26 42 -48 79 -48 83 0 6 35 24 51 25 3 1 10 -4 17 -11z m-3565 -110
c22 -71 26 -183 7 -183 -18 0 -40 41 -40 75 0 20 -2 22 -10 10 -6 -9 -8 -54
-4 -110 3 -58 1 -101 -5 -110 -20 -29 -34 7 -39 92 -3 73 0 95 28 181 17 53
34 97 39 97 4 0 15 -24 24 -52z m3307 -23 c8 -9 10 -28 6 -50 -8 -42 -26 -47
-26 -7 0 15 -3 37 -6 50 -7 25 7 29 26 7z m-3110 -69 c0 -58 -52 -216 -71
-216 -15 0 -20 38 -10 81 9 42 9 43 -7 23 -9 -12 -25 -36 -34 -54 -23 -40 -38
-31 -28 15 9 41 17 52 79 118 45 47 71 59 71 33z m3230 -112 c65 -49 71 -54
65 -65 -3 -5 -28 2 -55 16 -27 14 -56 25 -63 25 -16 0 -40 47 -32 60 8 13 33
2 85 -36z m203 -99 c9 -20 17 -44 17 -55 0 -13 14 -27 40 -40 44 -22 51 -49
25 -84 -23 -30 -19 -82 6 -100 17 -11 20 -21 15 -43 -4 -15 -11 -46 -16 -68
-10 -48 -86 -165 -106 -165 -11 0 -14 19 -14 88 0 90 -19 145 -55 158 -19 8
-19 34 0 62 12 16 14 34 9 70 -6 48 -5 50 30 77 39 30 46 58 21 91 -18 24 -19
44 -2 44 7 0 21 -16 30 -35z m-3592 -110 c5 -43 1 -58 -24 -107 -17 -32 -35
-58 -40 -58 -13 0 -2 142 14 188 17 50 43 39 50 -23z m3451 15 c-2 -14 -4 -46
-6 -71 -2 -45 -30 -119 -44 -119 -8 0 -62 66 -62 75 0 4 9 18 20 32 11 14 20
40 20 57 0 39 17 58 50 54 20 -2 24 -8 22 -28z m346 -62 c10 -33 10 -51 1 -78
-18 -53 -26 -56 -43 -16 -13 30 -13 47 -5 87 6 27 16 49 23 49 6 0 17 -19 24
-42z m-3683 -27 c3 -11 6 -64 7 -119 0 -89 -3 -106 -33 -182 -19 -46 -39 -85
-45 -87 -6 -2 -26 19 -44 47 -31 48 -32 55 -28 123 5 77 19 113 75 190 37 50
58 59 68 28z m-291 -83 c8 -13 31 -61 50 -106 39 -91 47 -158 21 -169 -22 -8
-23 -6 -35 72 -23 152 -56 172 -47 29 5 -73 4 -95 -6 -91 -17 5 -24 49 -26
159 -1 128 10 156 43 106z m3631 -83 c34 -26 50 -61 32 -72 -12 -8 -77 60 -77
82 0 21 8 19 45 -10z m369 -101 c20 -20 20 -39 0 -120 -15 -60 -15 -69 -1 -98
14 -31 14 -35 -9 -79 -17 -34 -23 -61 -21 -97 2 -55 -4 -63 -78 -111 -56 -35
-58 -21 -15 76 17 37 30 72 30 79 0 7 16 27 35 46 41 40 43 50 11 50 -23 0
-23 2 -14 38 5 20 12 57 15 81 5 35 3 43 -8 39 -8 -3 -18 -29 -23 -66 -10 -66
-21 -77 -36 -37 -9 25 -24 32 -34 17 -3 -5 0 -38 7 -75 9 -58 9 -71 -6 -102
l-17 -36 -30 18 c-35 20 -36 27 -11 54 25 27 32 67 25 138 -6 56 -5 59 17 66
32 10 69 45 69 65 0 25 39 70 60 70 10 0 26 -7 34 -16z m-419 -14 c4 -6 21
-17 40 -24 41 -18 59 -48 51 -90 -8 -41 16 -76 51 -76 23 0 25 -3 18 -27 -4
-16 -10 -59 -15 -98 -9 -85 -22 -127 -39 -133 -11 -4 -12 5 -7 41 12 81 -58
312 -93 305 -20 -4 -19 -30 7 -133 32 -125 36 -169 19 -183 -12 -11 -19 -8
-35 16 -44 60 -65 165 -40 190 9 9 8 21 -1 50 -10 29 -10 44 -2 60 6 11 11 34
11 51 0 51 19 78 35 51z m-3690 -95 c0 -25 -4 -30 -25 -30 -16 0 -26 6 -28 18
-6 30 6 49 30 45 18 -2 23 -9 23 -33z m285 -76 c31 -74 54 -299 32 -321 -8 -8
-21 -1 -51 28 -56 56 -76 130 -67 247 3 48 11 97 17 108 10 19 12 20 29 4 10
-9 28 -39 40 -66z m151 -21 c31 -70 33 -221 5 -283 l-19 -40 -8 40 c-4 22 -5
69 -2 104 5 52 3 63 -8 59 -21 -7 -29 -76 -18 -150 6 -37 8 -72 4 -78 -32 -51
-47 185 -20 306 25 116 31 120 66 42z m-301 -118 c55 -57 90 -136 90 -205 0
-49 -7 -53 -48 -28 -86 53 -123 115 -136 231 -7 51 -6 52 19 52 18 0 41 -15
75 -50z m3770 -115 c10 -12 9 -24 -4 -59 -16 -41 -16 -47 -1 -75 8 -17 20 -31
25 -31 6 0 29 14 52 30 39 28 78 39 78 22 0 -4 -13 -16 -30 -25 -16 -10 -30
-22 -30 -27 0 -5 -16 -14 -35 -20 -44 -15 -47 -43 -5 -65 39 -20 38 -49 0 -95
-35 -41 -37 -52 -10 -95 19 -31 19 -34 4 -49 -9 -9 -32 -23 -52 -32 -70 -29
-82 5 -27 75 40 51 40 51 18 109 -13 35 -14 48 -5 63 16 25 15 68 -3 119 -15
43 -21 151 -8 163 10 11 19 8 33 -8z m-221 -80 c12 -21 28 -35 40 -35 32 0 34
-18 8 -50 -14 -16 -27 -35 -29 -41 -9 -26 -28 4 -28 42 0 36 -2 40 -22 37 -18
-2 -23 3 -29 32 -4 19 -5 38 -3 42 12 19 44 5 63 -27z m-3383 -80 c3 -14 3
-32 0 -41 -5 -14 -10 -12 -27 10 -17 21 -19 29 -9 41 18 22 29 18 36 -10z
m3333 -37 c-7 -18 -29 -50 -47 -70 -29 -32 -33 -43 -28 -71 5 -26 2 -38 -14
-52 -11 -10 -20 -26 -20 -35 0 -9 -16 -34 -36 -54 -36 -37 -36 -38 -28 -94 4
-31 8 -68 8 -82 1 -38 -26 -31 -37 10 -13 49 -1 198 18 224 49 68 49 68 47
138 -3 92 7 110 56 102 30 -5 41 -2 56 15 28 30 43 11 25 -31z m189 -20 c2
-15 -4 -38 -12 -50 -21 -30 -20 -45 4 -75 29 -38 25 -56 -25 -102 -47 -43 -56
-70 -30 -91 26 -21 13 -52 -30 -75 -38 -19 -40 -23 -40 -65 0 -63 -16 -86 -75
-105 -60 -20 -75 -13 -89 44 -8 31 -16 141 -12 178 0 7 14 27 30 45 15 18 32
44 36 58 4 14 17 35 29 48 11 13 28 44 36 70 11 32 24 50 45 62 17 9 41 33 54
54 20 29 30 36 50 34 20 -2 27 -10 29 -30z m-3711 -4 c8 -22 -10 -49 -32 -49
-10 0 -22 7 -28 16 -15 24 -1 49 28 49 15 0 28 -7 32 -16z m451 -31 c45 -70
71 -144 97 -270 23 -110 23 -157 1 -150 -11 4 -13 11 -41 139 -12 57 -28 95
-60 143 -24 36 -46 81 -49 100 -7 36 1 85 14 85 4 0 22 -21 38 -47z m-14 -218
c14 -27 32 -79 41 -115 9 -36 18 -73 21 -82 11 -37 -34 -17 -93 40 -50 48 -65
71 -93 142 -18 47 -35 112 -37 145 l-5 60 71 -70 c42 -41 82 -91 95 -120z
m-249 157 c0 -18 -20 -15 -23 4 -3 10 1 15 10 12 7 -3 13 -10 13 -16z m18 -91
c15 -13 27 -33 27 -43 0 -21 -4 -22 -30 -6 -10 7 -22 10 -25 7 -12 -13 10 -39
91 -109 46 -41 84 -79 84 -86 0 -54 -126 14 -163 88 -38 75 -78 179 -72 188 8
13 53 -7 88 -39z m3069 -173 c1 -13 2 -50 2 -83 1 -59 1 -59 44 -83 63 -35 55
-59 -42 -139 -29 -24 -42 -43 -50 -80 -12 -45 -16 -50 -74 -79 -49 -24 -75
-30 -126 -31 -43 0 -66 4 -70 12 -2 7 6 34 19 61 14 27 25 60 25 74 1 39 16
55 52 55 36 0 34 -7 27 97 -3 40 26 68 72 68 35 0 39 3 48 38 6 20 11 42 11
49 0 50 58 88 62 41z m-3007 -147 c9 -28 -5 -51 -31 -51 -17 0 -25 7 -30 24
-3 14 -3 30 1 35 11 18 53 13 60 -8z m506 -40 c41 -37 77 -81 96 -118 30 -56
63 -155 63 -187 0 -27 -16 -18 -34 22 -44 93 -98 169 -146 205 -48 36 -62 56
-76 112 -11 43 26 30 97 -34z m2947 -44 c-5 -37 -67 -33 -68 5 0 4 7 14 16 22
21 22 56 3 52 -27z m-3074 -20 c23 -18 53 -40 68 -50 47 -29 158 -191 158
-230 0 -27 -12 -16 -99 97 -82 106 -98 123 -108 112 -10 -10 12 -49 75 -133
63 -83 98 -113 132 -113 24 0 38 -26 22 -42 -11 -11 -153 85 -205 140 -24 25
-90 161 -111 230 -11 33 19 29 68 -11z m2926 -5 c0 -23 -58 -46 -77 -31 -16
14 -8 27 21 39 35 14 56 11 56 -8z m-3062 -69 c26 -17 55 -47 71 -74 52 -91
123 -167 181 -195 77 -37 110 -62 103 -79 -7 -19 -24 -19 -65 0 -18 8 -70 28
-115 45 -123 46 -179 97 -242 216 -28 53 -51 104 -51 112 0 22 64 9 118 -25z
m2959 2 c27 -13 35 -13 74 0 38 14 44 14 58 0 27 -26 -4 -67 -60 -81 -78 -20
-89 -29 -89 -78 0 -43 -2 -45 -46 -67 -26 -12 -54 -35 -63 -50 -18 -32 -48
-41 -36 -11 5 9 11 36 14 60 5 36 14 49 61 87 30 25 58 45 62 45 11 0 10 28
-2 35 -10 6 -108 -52 -149 -89 l-24 -21 7 25 c3 14 11 47 17 73 11 49 11 49
45 42 28 -5 41 -1 65 19 36 31 29 29 66 11z m-2369 -164 c-4 -31 -35 -36 -52
-8 -9 14 -7 21 7 32 27 19 49 8 45 -24z m1716 -27 c8 -22 -11 -54 -34 -54 -25
0 -33 15 -26 46 7 28 50 34 60 8z m-1703 -70 c3 -21 10 -49 17 -61 8 -14 9
-24 2 -28 -6 -3 -13 2 -16 12 -3 10 -12 33 -20 51 -17 41 -18 75 -1 70 6 -3
14 -22 18 -44z m2130 36 c35 0 23 -39 -16 -56 -21 -8 -50 -35 -71 -64 -44 -62
-59 -70 -124 -70 -70 0 -62 16 29 61 80 39 110 69 68 69 -13 0 -32 -7 -43 -15
-26 -20 -34 -19 -34 5 0 30 -29 24 -48 -10 -29 -52 -88 -51 -80 1 4 31 72 68
128 69 25 1 54 6 65 11 11 5 40 6 64 4 24 -3 52 -5 62 -5z m-1920 -121 c57
-22 115 -50 130 -62 39 -32 149 -173 149 -192 0 -16 -29 1 -79 48 -52 48 -147
103 -243 141 -36 14 -78 65 -78 94 0 18 8 16 121 -29z m1291 -67 c3 -26 5 -27
65 -28 65 -1 93 -14 93 -44 0 -20 -54 -70 -75 -70 -27 0 -46 -30 -40 -64 5
-23 2 -36 -12 -48 -27 -24 -94 -39 -145 -32 -56 8 -77 -3 -103 -53 l-20 -38
-145 -5 c-80 -3 -152 -7 -160 -10 -9 -3 -16 3 -18 18 -3 16 9 34 40 65 25 23
61 63 82 89 26 34 48 50 76 58 21 6 51 24 67 40 21 22 37 30 63 30 46 0 76 21
90 64 9 28 20 37 63 53 58 22 74 16 79 -25z m294 -17 c4 -22 0 -38 -16 -58
-40 -50 -70 -25 -70 58 0 38 4 47 23 54 28 11 54 -11 63 -54z m-1656 -31 c77
-17 144 -59 252 -158 72 -66 93 -96 68 -96 -6 0 -43 22 -83 48 -201 135 -357
215 -357 184 0 -4 70 -52 156 -107 85 -54 157 -102 160 -106 3 -5 -1 -17 -8
-29 -15 -24 -1 -53 28 -58 10 -2 23 -8 29 -13 28 -27 -97 -47 -188 -29 -76 14
-169 67 -254 145 -83 75 -82 95 7 95 31 0 47 -9 97 -53 38 -34 85 -64 127 -80
76 -31 96 -33 96 -12 0 8 -6 15 -13 15 -7 0 -45 19 -84 43 -55 32 -87 62 -142
129 -39 49 -71 92 -71 97 0 22 26 19 180 -15z m1780 -16 c0 -17 -40 -47 -56
-41 -17 6 -18 15 -1 35 21 27 57 31 57 6z m-2160 -48 c0 -22 -32 -43 -53 -34
-17 6 -28 37 -18 51 18 29 71 16 71 -17z m120 -11 c0 -5 -9 -9 -20 -9 -19 0
-26 11 -14 23 8 8 34 -3 34 -14z m2150 -4 c0 -9 -7 -18 -16 -22 -18 -7 -39 11
-30 26 11 17 46 13 46 -4z m-1321 -44 c13 -24 -8 -55 -34 -50 -23 5 -40 32
-32 53 9 22 54 20 66 -3z m1001 -26 c19 -14 44 -25 57 -25 40 0 29 -35 -17
-54 -26 -10 -48 -29 -64 -55 l-25 -39 -102 -7 c-97 -7 -102 -8 -117 -35 -19
-32 -59 -44 -97 -30 -25 9 -25 11 -10 39 24 48 67 73 113 65 28 -4 52 0 91 16
56 25 71 43 71 89 0 33 22 61 49 61 9 0 32 -11 51 -25z m-752 3 c32 -32 -2
-79 -42 -56 -20 11 -21 32 0 52 19 19 26 20 42 4z m-380 -115 c-2 -10 -10 -18
-18 -18 -8 0 -16 8 -18 18 -2 12 3 17 18 17 15 0 20 -5 18 -17z m76 -60 c4 -9
1 -20 -6 -25 -18 -11 -78 -10 -78 2 0 6 -1 13 -2 17 -3 7 34 18 68 22 7 0 15
-7 18 -16z m220 -100 c-7 -55 -29 -87 -43 -64 -8 13 -6 65 5 99 2 6 12 12 23
12 19 0 20 -5 15 -47z m-103 -36 c-5 -5 -17 -7 -25 -4 -18 7 -12 31 13 61 15
17 16 17 19 -14 2 -18 -1 -37 -7 -43z m424 64 c3 -5 1 -13 -5 -16 -15 -9 -43
3 -35 15 8 13 32 13 40 1z m-655 -21 c0 -16 -40 -41 -74 -47 -39 -6 -48 8 -23
39 17 24 97 30 97 8z m585 -8 c77 -21 101 -31 103 -46 4 -17 -1 -18 -45 -12
-54 8 -171 41 -192 55 -17 11 -6 31 17 30 9 0 62 -13 117 -27z m-40 -83 c72
-35 85 -45 83 -63 -2 -16 -9 -20 -27 -18 -60 6 -172 86 -157 111 9 14 2 17
101 -30z m-591 -20 c-30 -35 -95 -79 -116 -79 -11 0 -18 7 -18 18 0 12 21 28
63 49 75 39 98 42 71 12z"/>
<path d="M5793 4433 c3 -26 10 -87 15 -136 5 -48 12 -90 16 -95 4 -4 14 2 23
13 12 16 14 38 9 114 -7 103 -21 144 -50 149 -16 3 -17 -1 -13 -45z"/>
<path d="M2251 4343 c-17 -36 -35 -186 -27 -218 5 -18 12 -25 24 -23 18 4 24
33 37 181 6 72 4 87 -7 87 -8 0 -20 -12 -27 -27z"/>
<path d="M2172 3938 c-7 -9 -8 -37 -2 -84 8 -76 14 -94 32 -94 7 0 9 28 5 86
-5 88 -15 115 -35 92z"/>
<path d="M2030 3762 c0 -17 58 -82 73 -82 19 0 3 39 -26 68 -38 37 -47 39 -47
14z"/>
<path d="M5675 3419 c-16 -27 -32 -62 -35 -77 -4 -21 -11 -27 -30 -27 -23 0
-26 -5 -31 -51 -4 -31 -21 -77 -43 -116 -41 -73 -45 -98 -17 -98 12 0 38 23
66 60 25 33 56 65 67 71 l21 11 -23 18 -23 17 21 30 c40 56 88 213 65 213 -4
0 -21 -23 -38 -51z"/>
<path d="M2380 3290 c0 -39 87 -180 111 -180 22 0 0 72 -42 136 -42 64 -69 82
-69 44z"/>
<path d="M5237 2963 c-13 -43 -17 -48 -41 -45 -26 3 -38 -20 -16 -33 18 -11
11 -34 -25 -88 -19 -28 -35 -57 -35 -64 0 -26 39 -12 67 23 15 19 47 54 71 77
46 46 51 57 26 57 -12 0 -14 5 -8 18 4 9 9 36 12 60 4 37 2 42 -17 42 -16 0
-23 -11 -34 -47z"/>
<path d="M2510 2752 c0 -26 180 -202 208 -202 12 0 22 6 22 13 0 18 -196 207
-215 207 -8 0 -15 -8 -15 -18z"/>
<path d="M4524 2284 c-82 -42 -171 -93 -198 -113 -27 -20 -70 -47 -95 -61 -64
-35 -67 -84 -3 -51 9 5 46 23 82 41 36 17 81 41 100 53 25 16 57 23 115 27 62
4 80 8 80 20 0 8 -10 16 -22 18 -31 4 -29 30 2 42 40 15 135 79 135 90 0 24
-56 5 -196 -66z"/>
<path d="M3112 2178 c4 -26 58 -64 146 -101 73 -31 82 -32 82 -11 0 8 -16 22
-35 30 -19 8 -65 34 -102 59 -75 51 -96 56 -91 23z"/>
<path d="M1794 6316 c-43 -19 -164 -134 -164 -157 0 -11 55 -67 138 -141 75
-67 175 -159 221 -205 47 -48 90 -82 97 -79 7 3 27 24 44 48 l31 43 -68 62
c-37 34 -62 62 -55 63 7 0 44 -16 82 -35 38 -19 77 -35 85 -35 20 0 95 60 95
76 0 10 -74 48 -171 87 -35 14 -37 18 -41 70 -7 85 -48 143 -127 184 -68 36
-116 41 -167 19z m136 -146 c40 -40 15 -131 -27 -99 -41 30 -93 84 -93 95 0
30 91 33 120 4z"/>
<path d="M6198 6183 c-87 -79 -328 -301 -357 -329 l-24 -22 28 -36 c46 -60 58
-58 146 30 96 95 102 81 24 -51 -30 -52 -55 -98 -55 -102 0 -5 13 -24 28 -42
l28 -34 200 151 c109 83 219 168 244 190 l44 39 -43 52 c-38 46 -45 50 -60 38
-9 -7 -50 -42 -90 -77 -41 -35 -77 -58 -79 -52 -2 6 22 61 54 122 l57 111 -33
34 c-19 19 -37 35 -41 35 -4 0 -36 -26 -71 -57z"/>
<path d="M6470 5893 c-30 -24 -137 -105 -237 -180 -101 -74 -183 -140 -183
-145 0 -6 26 -46 58 -91 31 -44 60 -85 64 -91 5 -8 118 59 118 71 0 3 -13 24
-30 47 -32 48 -30 58 21 90 27 17 27 17 55 -23 16 -22 35 -41 42 -41 13 0 102
59 102 67 0 3 -12 25 -27 50 l-27 46 34 29 c19 15 39 28 46 28 6 0 24 -18 39
-40 15 -22 29 -40 31 -40 11 0 94 66 94 74 0 6 -27 47 -60 91 -33 44 -60 83
-60 86 -1 22 -33 11 -80 -28z"/>
<path d="M1370 5880 c-19 -27 -35 -56 -35 -64 0 -16 498 -356 521 -356 11 0
150 168 160 194 5 13 -65 76 -82 76 -5 -1 -26 -23 -47 -50 l-38 -50 -62 44
c-34 24 -127 90 -207 146 -80 57 -152 105 -160 106 -9 2 -29 -17 -50 -46z"/>
<path d="M6583 5623 c-55 -49 -157 -135 -227 -193 -132 -110 -141 -124 -107
-169 l18 -23 87 26 c48 15 93 25 99 23 6 -2 -26 -31 -71 -66 -45 -34 -82 -64
-82 -66 0 -15 46 -95 54 -95 6 0 143 32 304 72 l293 73 -6 25 c-3 14 -13 45
-22 69 l-17 43 -46 -6 c-26 -3 -73 -13 -105 -21 -32 -9 -60 -14 -62 -11 -2 2
30 32 71 66 42 33 76 65 76 70 0 24 -36 80 -51 80 -14 0 -104 -24 -166 -45
-34 -11 -4 26 63 78 l74 59 -26 49 c-15 27 -32 49 -39 49 -6 0 -57 -39 -112
-87z"/>
<path d="M1193 5611 c-18 -33 -33 -66 -33 -75 0 -8 62 -63 138 -123 75 -59
186 -150 245 -201 60 -52 110 -92 112 -90 8 9 55 109 55 117 0 5 -9 13 -20 16
-25 8 -26 36 -2 65 16 19 20 20 46 9 27 -12 30 -11 52 16 29 36 60 93 54 98
-7 6 -599 227 -608 227 -4 0 -22 -27 -39 -59z m360 -198 c30 -15 36 -40 11
-50 -15 -6 -84 51 -84 70 0 10 32 1 73 -20z"/>
<path d="M1097 5316 c-47 -17 -72 -39 -103 -92 -31 -53 -66 -156 -57 -165 21
-20 581 -212 598 -205 7 2 20 25 28 50 19 54 18 55 -78 86 -69 22 -103 40 -76
40 7 0 51 -8 96 -17 65 -13 86 -14 97 -5 14 11 43 90 36 97 -2 2 -59 9 -127
14 -68 6 -127 14 -132 17 -5 3 -9 16 -9 30 0 116 -144 195 -273 150z m140
-148 c23 -22 33 -88 13 -88 -10 0 -141 50 -150 57 -3 3 8 16 23 29 36 30 83
31 114 2z"/>
<path d="M6844 5011 l-130 -108 -130 -32 c-72 -18 -136 -36 -143 -41 -11 -6
-11 -17 -1 -59 6 -28 15 -53 19 -56 5 -2 69 12 144 32 l137 35 182 -35 c101
-19 185 -33 187 -31 2 2 -4 32 -14 68 -20 72 -16 69 -117 87 -38 6 -68 15 -68
20 0 4 26 23 57 42 32 18 59 41 61 50 4 18 -37 137 -47 137 -3 -1 -65 -49
-137 -109z"/>
<path d="M892 4934 c-38 -126 -53 -197 -45 -205 14 -13 610 -176 617 -168 9
12 57 219 54 234 -2 11 -24 24 -63 36 -33 10 -61 19 -61 19 -1 0 -7 -21 -14
-47 -7 -27 -16 -52 -20 -56 -9 -10 -85 2 -105 17 -14 10 -14 16 1 59 9 26 14
53 11 60 -6 15 -113 51 -127 42 -6 -3 -10 -13 -10 -22 0 -9 -5 -33 -12 -55
-11 -37 -13 -38 -42 -32 -75 16 -77 18 -61 71 8 26 15 56 15 66 0 18 -32 35
-86 44 -31 5 -32 5 -52 -63z"/>
<path d="M6743 4706 c-34 -8 -72 -20 -85 -27 -63 -34 -131 -86 -144 -110 -19
-38 -18 -134 3 -169 64 -108 365 -116 541 -13 125 73 119 233 -11 300 -43 22
-68 27 -147 29 -58 2 -119 -2 -157 -10z m264 -138 c56 -46 -103 -118 -264
-118 -83 0 -123 12 -123 37 0 19 46 54 95 73 71 28 262 33 292 8z"/>
<path d="M970 4616 c-131 -27 -174 -77 -191 -222 -5 -48 -6 -91 -2 -95 11 -11
516 -59 620 -59 19 0 22 7 28 65 14 131 -17 200 -119 260 -81 47 -238 71 -336
51z m215 -140 c83 -26 127 -86 61 -86 -70 0 -301 22 -309 30 -15 14 12 49 46
59 49 14 149 13 202 -3z"/>
<path d="M6825 4299 c-148 -15 -271 -28 -272 -28 -2 -1 -3 -28 -3 -62 l0 -61
81 7 c100 9 98 -2 -5 -40 l-75 -27 2 -54 c2 -40 6 -54 17 -54 8 0 63 19 122
41 l107 41 39 -30 c52 -42 82 -52 151 -52 75 0 151 37 183 88 19 31 23 50 22
122 0 47 -4 97 -7 113 -9 34 -2 34 -362 -4z m225 -135 c0 -54 -123 -69 -136
-17 -9 34 2 41 66 45 68 4 70 3 70 -28z"/>
<path d="M767 4094 c-4 -76 -4 -141 0 -145 5 -4 152 -4 328 -1 l320 7 3 123 3
122 -71 0 -70 0 0 -49 0 -49 -65 -7 c-35 -3 -69 -4 -75 0 -5 3 -10 31 -10 61
l0 54 -71 0 -70 0 2 -57 3 -58 -47 -3 -47 -3 0 65 0 66 -34 0 c-18 0 -47 3
-63 6 l-30 6 -6 -138z"/>
<path d="M6750 3960 c-220 -6 -196 6 -192 -90 l2 -40 112 0 c67 0 108 -4 103
-9 -6 -5 -55 -19 -110 -31 -55 -13 -104 -26 -108 -30 -9 -8 -29 -142 -22 -148
2 -2 96 22 209 53 l205 57 108 -91 c59 -50 110 -91 114 -91 7 0 19 86 19 142
0 33 -5 40 -67 85 l-68 48 73 3 72 3 0 74 0 75 -127 -2 c-71 -1 -216 -5 -323
-8z"/>
<path d="M796 3903 l-38 -4 6 -42 c3 -23 8 -91 12 -151 l7 -108 76 6 c120 10
524 55 549 61 20 5 22 11 22 80 0 54 -4 75 -13 75 -7 0 -51 -4 -97 -10 -47 -5
-106 -12 -132 -15 l-48 -6 0 35 c0 62 -5 66 -80 66 l-67 0 1 -57 1 -58 -41 -3
-41 -3 -7 70 -7 71 -32 -2 c-18 -1 -49 -3 -71 -5z"/>
<path d="M6777 3550 c-38 -12 -58 -29 -73 -66 -36 -86 60 -182 142 -142 35 16
74 72 74 105 0 37 -27 81 -60 98 -32 17 -42 17 -83 5z"/>
<path d="M1094 3521 c-34 -15 -64 -60 -64 -98 0 -26 8 -43 34 -69 29 -29 41
-34 79 -34 38 0 49 5 71 31 36 43 36 98 -1 139 -30 33 -82 46 -119 31z"/>
<path d="M6451 3264 c-11 -31 -21 -61 -21 -67 0 -7 22 -37 48 -68 26 -30 78
-95 115 -143 66 -84 92 -104 158 -121 22 -5 26 0 59 85 19 49 39 90 45 90 6 0
43 -14 84 -31 40 -17 77 -27 81 -22 17 16 49 118 41 126 -4 4 -41 21 -82 36
-51 19 -73 32 -70 42 2 8 5 21 7 29 3 10 -12 22 -48 38 -66 28 -72 28 -86 -3
-6 -14 -16 -25 -21 -25 -4 0 -68 20 -140 45 -72 25 -135 45 -140 45 -4 0 -18
-25 -30 -56z m268 -168 c8 -9 6 -18 -4 -32 -14 -18 -16 -18 -45 14 -17 18 -28
37 -25 42 7 11 60 -6 74 -24z"/>
<path d="M1410 3244 c-52 -19 -183 -64 -290 -100 -107 -36 -198 -68 -202 -70
-7 -4 14 -81 31 -113 11 -20 13 -19 109 16 53 19 185 67 292 105 107 39 196
71 197 73 3 2 -38 125 -40 125 -1 -1 -45 -17 -97 -36z"/>
<path d="M1528 3089 c-9 -5 -135 -54 -279 -109 -144 -55 -265 -102 -267 -105
-3 -2 6 -30 18 -60 27 -66 21 -66 163 -5 150 65 152 57 17 -74 -55 -53 -100
-101 -100 -108 0 -8 23 -53 45 -86 1 -1 60 26 131 61 71 35 200 95 287 132 86
38 157 73 157 79 -1 26 -40 96 -55 96 -8 0 -43 -14 -76 -31 -95 -48 -102 -35
-26 49 37 39 67 74 67 76 0 2 -9 24 -20 50 -21 47 -32 53 -62 35z"/>
<path d="M6327 2915 c-15 -31 -27 -57 -27 -59 0 -4 545 -276 553 -276 8 0 67
115 67 130 0 13 -45 35 -237 119 -87 38 -192 85 -234 105 -42 20 -80 36 -85
36 -6 0 -22 -25 -37 -55z"/>
<path d="M6251 2738 c-19 -12 -43 -35 -54 -49 -21 -29 -33 -103 -23 -143 18
-74 147 -156 243 -156 46 0 58 4 92 35 21 19 44 49 51 65 7 17 18 30 25 30 17
0 65 -57 65 -76 0 -8 -21 -37 -46 -64 -51 -54 -51 -64 -5 -119 l29 -35 52 40
c69 52 94 95 94 159 0 109 -68 190 -227 271 -101 52 -119 58 -187 62 -66 3
-79 1 -109 -20z m159 -110 c51 -26 63 -57 33 -90 -21 -23 -65 -20 -107 7 -42
28 -32 105 14 105 9 0 36 -10 60 -22z"/>
<path d="M1560 2709 c-69 -13 -203 -84 -263 -139 -93 -85 -108 -152 -52 -226
23 -30 111 -92 119 -83 2 2 16 26 31 52 l28 48 -37 30 c-20 17 -36 34 -36 39
0 44 197 160 272 160 49 0 78 -15 78 -40 0 -18 7 -20 59 -20 67 0 76 9 65 69
-9 53 -30 80 -77 102 -45 20 -111 23 -187 8z"/>
<path d="M6072 2466 c-18 -24 -32 -50 -32 -58 1 -7 17 -25 38 -39 20 -14 129
-92 242 -173 l205 -147 33 37 c35 41 51 82 35 93 -5 3 -112 77 -237 164 -125
87 -233 160 -240 163 -7 3 -27 -15 -44 -40z"/>
<path d="M1740 2489 c-75 -15 -168 -67 -242 -137 -118 -111 -147 -202 -88
-274 52 -64 129 -72 249 -28 168 61 301 193 317 314 6 40 3 47 -27 80 -48 52
-108 65 -209 45z m109 -108 c22 -14 5 -58 -44 -109 -73 -79 -208 -149 -260
-136 -82 21 49 163 213 230 64 26 71 27 91 15z"/>
<path d="M1824 2114 c-131 -102 -240 -190 -242 -194 -4 -10 57 -80 69 -80 6 0
37 23 70 50 90 75 101 68 39 -25 -22 -33 -40 -67 -40 -75 0 -16 86 -108 93
-99 2 2 32 52 66 110 l63 105 64 11 c80 14 125 46 159 113 26 52 32 102 15
145 -10 26 -97 125 -110 125 -3 0 -114 -84 -246 -186z m236 -3 c0 -17 -10 -42
-23 -57 -19 -21 -33 -27 -68 -28 -25 -1 -44 4 -44 10 0 13 105 102 123 103 7
1 12 -11 12 -28z"/>
<path d="M5880 2239 c-32 -13 -88 -66 -106 -101 -40 -76 13 -192 101 -222 35
-12 41 -19 48 -53 4 -21 24 -60 43 -86 83 -114 237 -115 328 -3 29 35 31 44
31 116 0 72 -2 81 -31 117 -35 44 -105 83 -149 83 -27 0 -32 5 -48 50 -13 37
-28 57 -56 75 -43 29 -122 41 -161 24z m95 -133 c25 -37 5 -76 -38 -76 -40 0
-57 15 -57 52 0 49 68 66 95 24z m196 -167 c22 -22 21 -67 -2 -96 -18 -21 -96
-17 -109 6 -15 29 -12 77 6 95 23 23 80 20 105 -5z"/>
<path d="M2058 1867 c-115 -115 -208 -213 -208 -217 0 -5 16 -22 37 -39 l36
-30 82 75 82 74 36 -15 c43 -18 59 -18 109 -5 46 13 132 80 159 123 22 38 25
97 5 136 -18 34 -101 112 -118 109 -7 -1 -106 -96 -220 -211z m246 55 c8 -13
-25 -71 -52 -92 -23 -19 -72 -28 -72 -14 0 3 21 30 48 59 45 52 65 64 76 47z"/>
<path d="M6362 2024 c-18 -12 -22 -24 -20 -52 3 -36 4 -37 46 -37 33 0 48 -5
62 -22 24 -30 30 -29 30 6 0 47 -21 91 -51 106 -35 19 -39 19 -67 -1z"/>
<path d="M5616 1994 c-30 -28 -36 -40 -30 -54 13 -28 348 -448 357 -449 12 -1
106 72 107 83 1 20 -366 456 -384 456 -6 0 -28 -17 -50 -36z"/>
<path d="M5433 1863 c-59 -40 -60 -43 -38 -143 8 -38 10 -69 5 -74 -5 -5 -38
14 -79 47 -38 32 -77 57 -86 57 -27 0 -117 -50 -112 -63 2 -6 68 -56 148 -109
79 -54 154 -108 167 -120 13 -11 43 -63 68 -113 25 -51 47 -95 51 -99 8 -8
123 56 123 69 0 5 -27 54 -60 108 l-59 98 -21 157 c-30 225 -30 222 -43 221
-7 -1 -36 -17 -64 -36z"/>
<path d="M2461 1845 c-78 -37 -209 -171 -249 -255 -40 -86 -49 -154 -25 -199
29 -56 63 -74 135 -75 54 -1 72 4 120 32 122 70 238 236 246 353 6 77 -10 114
-63 144 -53 32 -96 31 -164 0z m105 -120 c22 -57 -125 -262 -202 -281 -35 -9
-55 16 -44 55 35 123 221 293 246 226z"/>
<path d="M2654 1528 c-70 -117 -141 -233 -157 -257 -33 -48 -33 -48 41 -82 23
-11 47 -17 52 -14 6 4 26 37 44 73 38 75 62 109 69 102 3 -3 -6 -45 -19 -95
-33 -123 -32 -127 19 -147 23 -10 47 -18 53 -18 6 0 14 21 18 48 4 26 17 83
29 126 l22 79 47 14 c106 31 156 158 99 256 -14 25 -161 127 -183 127 -4 0
-64 -96 -134 -212z m196 18 c0 -37 -5 -48 -31 -70 -32 -27 -59 -34 -59 -15 0
21 65 129 77 129 9 0 13 -15 13 -44z"/>
<path d="M4998 1643 c-48 -19 -48 -11 1 -327 22 -138 41 -262 43 -276 4 -30
22 -30 91 0 46 20 47 22 47 64 l0 43 55 20 55 21 24 -29 c14 -16 30 -29 36
-29 20 0 111 51 116 65 4 8 -13 34 -38 62 -99 106 -285 311 -324 356 -45 51
-51 53 -106 30z m175 -290 c15 -20 27 -42 27 -50 0 -16 -41 -34 -53 -24 -11
11 -21 111 -11 111 5 -1 21 -17 37 -37z"/>
<path d="M3087 1558 c-8 -13 -68 -106 -134 -208 -173 -267 -176 -272 -166
-280 4 -4 28 -15 52 -24 38 -15 46 -15 52 -3 5 7 16 24 26 36 l18 22 50 -18
49 -18 -2 -45 -3 -46 66 -21 c47 -15 67 -18 69 -10 2 7 11 125 20 262 9 138
19 271 21 296 l5 46 -41 12 c-23 7 -47 15 -54 17 -8 3 -20 -5 -28 -18z m-22
-335 c-7 -37 -29 -42 -48 -12 -8 13 -3 28 19 65 l29 49 3 -34 c2 -19 1 -50 -3
-68z"/>
<path d="M4765 1560 l-50 -17 3 -132 c2 -73 -1 -131 -6 -131 -5 0 -36 48 -69
108 l-59 107 -53 -1 c-29 -1 -55 -4 -58 -8 -6 -5 57 -328 98 -505 l21 -93 49
6 c90 12 91 14 59 136 -32 124 -23 134 30 34 19 -36 42 -72 52 -80 15 -15 17
-13 22 18 3 18 8 63 11 101 4 37 10 65 14 63 4 -3 16 -43 26 -90 24 -117 29
-123 91 -106 27 7 53 16 57 20 15 13 -154 575 -176 583 -6 2 -34 -4 -62 -13z"/>
<path d="M3257 1517 c-3 -8 -8 -35 -12 -60 l-7 -45 46 -7 c28 -5 46 -12 46
-20 0 -20 -46 -246 -73 -363 -15 -62 -21 -105 -15 -108 14 -9 130 -35 135 -31
2 2 25 109 52 238 l48 234 50 -3 50 -4 6 39 c14 83 22 77 -135 108 -79 15
-152 30 -164 32 -13 3 -23 -1 -27 -10z"/>
<path d="M3610 1454 c0 -6 -11 -142 -25 -304 -14 -161 -24 -294 -23 -295 7 -5
272 -25 276 -20 3 3 5 33 6 67 l1 63 -57 3 c-31 2 -60 8 -65 15 -5 7 -7 38 -5
70 l4 57 63 0 64 0 6 55 c11 82 5 89 -60 81 -62 -7 -70 0 -60 50 l6 35 60 -7
59 -7 0 67 0 66 -33 0 c-19 0 -75 3 -125 6 -56 4 -92 3 -92 -2z"/>
<path d="M3892 1138 l3 -303 90 1 c115 1 137 7 185 50 135 122 157 372 43 489
-53 55 -86 65 -213 65 l-110 0 2 -302z m200 175 c48 -54 51 -283 5 -321 -7 -6
-24 -13 -40 -17 l-27 -7 0 181 0 181 23 0 c13 0 31 -8 39 -17z"/>
</g>
</svg>
